<mxfile host="app.diagrams.net" modified="2022-07-18T02:52:35.263Z" agent="5.0 (Macintosh; Intel Mac OS X 10_15_7) AppleWebKit/537.36 (KHTML, like Gecko) Chrome/103.0.0.0 Safari/537.36" etag="OObWZeeBlEfjjCwLlXx2" version="20.0.1" type="github">
  <diagram id="RmGJ59pMcFpoBnkh9QOx" name="第 1 页">
    <mxGraphModel dx="1833" dy="1032" grid="1" gridSize="10" guides="1" tooltips="1" connect="1" arrows="1" fold="1" page="1" pageScale="1" pageWidth="827" pageHeight="1169" math="0" shadow="0">
      <root>
        <mxCell id="0" />
        <mxCell id="1" parent="0" />
        <mxCell id="AI98fpEOvPEI3qGAAj4D-5" style="edgeStyle=orthogonalEdgeStyle;rounded=0;orthogonalLoop=1;jettySize=auto;html=1;exitX=1;exitY=0.5;exitDx=0;exitDy=0;fillColor=#dae8fc;strokeColor=#6c8ebf;" edge="1" parent="1" source="AI98fpEOvPEI3qGAAj4D-1" target="AI98fpEOvPEI3qGAAj4D-2">
          <mxGeometry relative="1" as="geometry" />
        </mxCell>
        <mxCell id="AI98fpEOvPEI3qGAAj4D-1" value="GraphicsLayer&lt;br&gt;合成层" style="rounded=0;whiteSpace=wrap;html=1;fillColor=#dae8fc;strokeColor=#6c8ebf;" vertex="1" parent="1">
          <mxGeometry x="50" y="230" width="100" height="50" as="geometry" />
        </mxCell>
        <mxCell id="AI98fpEOvPEI3qGAAj4D-6" style="edgeStyle=orthogonalEdgeStyle;rounded=0;orthogonalLoop=1;jettySize=auto;html=1;exitX=1;exitY=0.5;exitDx=0;exitDy=0;fillColor=#dae8fc;strokeColor=#6c8ebf;" edge="1" parent="1" source="AI98fpEOvPEI3qGAAj4D-2" target="AI98fpEOvPEI3qGAAj4D-3">
          <mxGeometry relative="1" as="geometry" />
        </mxCell>
        <mxCell id="AI98fpEOvPEI3qGAAj4D-2" value="GraphicsContext" style="rounded=0;whiteSpace=wrap;html=1;fillColor=#dae8fc;strokeColor=#6c8ebf;" vertex="1" parent="1">
          <mxGeometry x="230" y="230" width="100" height="50" as="geometry" />
        </mxCell>
        <mxCell id="AI98fpEOvPEI3qGAAj4D-7" style="edgeStyle=orthogonalEdgeStyle;rounded=0;orthogonalLoop=1;jettySize=auto;html=1;exitX=1;exitY=0.5;exitDx=0;exitDy=0;entryX=0;entryY=0.5;entryDx=0;entryDy=0;fillColor=#dae8fc;strokeColor=#6c8ebf;" edge="1" parent="1" source="AI98fpEOvPEI3qGAAj4D-3" target="AI98fpEOvPEI3qGAAj4D-4">
          <mxGeometry relative="1" as="geometry" />
        </mxCell>
        <mxCell id="AI98fpEOvPEI3qGAAj4D-3" value="GPU" style="rounded=0;whiteSpace=wrap;html=1;fillColor=#dae8fc;strokeColor=#6c8ebf;" vertex="1" parent="1">
          <mxGeometry x="410" y="230" width="100" height="50" as="geometry" />
        </mxCell>
        <mxCell id="AI98fpEOvPEI3qGAAj4D-4" value="显示图像" style="rounded=0;whiteSpace=wrap;html=1;fillColor=#dae8fc;strokeColor=#6c8ebf;" vertex="1" parent="1">
          <mxGeometry x="570" y="230" width="100" height="50" as="geometry" />
        </mxCell>
        <mxCell id="AI98fpEOvPEI3qGAAj4D-8" value="位图" style="text;html=1;align=center;verticalAlign=middle;resizable=0;points=[];autosize=1;strokeColor=none;fillColor=none;" vertex="1" parent="1">
          <mxGeometry x="340" y="230" width="40" height="20" as="geometry" />
        </mxCell>
        <mxCell id="AI98fpEOvPEI3qGAAj4D-9" value="合成位图" style="text;html=1;align=center;verticalAlign=middle;resizable=0;points=[];autosize=1;strokeColor=none;fillColor=none;" vertex="1" parent="1">
          <mxGeometry x="510" y="230" width="60" height="20" as="geometry" />
        </mxCell>
      </root>
    </mxGraphModel>
  </diagram>
</mxfile>
